<?xml version="1.0" encoding="iso-8859-1"?>
<!-- Uploaded to: SVG Repo, www.svgrepo.com, Generator: SVG Repo Mixer Tools -->
<!DOCTYPE svg PUBLIC "-//W3C//DTD SVG 1.1//EN" "http://www.w3.org/Graphics/SVG/1.1/DTD/svg11.dtd">
<svg fill="#000000" height="800px" width="800px" version="1.1" id="Capa_1" xmlns="http://www.w3.org/2000/svg" xmlns:xlink="http://www.w3.org/1999/xlink" 
	 viewBox="0 0 279 279" xml:space="preserve">
<path d="M265.333,114.056v51.667c0,4.143-2.69,7.277-6.833,7.277h-20.167v58h10.833c4.143,0,7.167,3.746,7.167,7.889v33
	c0,4.143-3.024,7.111-7.167,7.111h-33c-4.143,0-7.833-2.969-7.833-7.111v-33c0-4.143,3.69-7.889,7.833-7.889h7.167v-23.81
	c-22,37.021-62.885,61.81-109.31,61.81H28.666c-8.284,0-15-6.716-15-15s6.716-15,15-15h85.357c42.818,0,79.313-27.525,92.688-65.783
	c-4.086-0.066-7.379-3.392-7.379-7.494v-51.667c0-3.835,2.879-6.991,6.592-7.44C191.949,69.49,156.029,43,114.024,43H28.666
	c-8.284,0-15-6.716-15-15s6.716-15,15-15h85.357c46.424,0,87.31,24.789,109.31,61.81V48h-7.167c-4.143,0-7.833-2.969-7.833-7.111
	v-33c0-4.143,3.69-7.889,7.833-7.889h33c4.143,0,7.167,3.746,7.167,7.889v33c0,4.143-3.024,7.111-7.167,7.111h-10.833v59H258.5
	C262.643,107,265.333,109.913,265.333,114.056z"/>
</svg>